<?xml version="1.0" encoding="utf-8"?>
<!-- Generator: Adobe Illustrator 16.2.1, SVG Export Plug-In . SVG Version: 6.00 Build 0)  -->
<!DOCTYPE svg PUBLIC "-//W3C//DTD SVG 1.1//EN" "http://www.w3.org/Graphics/SVG/1.1/DTD/svg11.dtd">
<svg version="1.1" id="Layer_1" xmlns="http://www.w3.org/2000/svg" xmlns:xlink="http://www.w3.org/1999/xlink" x="0px" y="0px"
	 width="57.6px" height="57.6px" viewBox="0 0 57.6 57.6" enable-background="new 0 0 57.6 57.6" xml:space="preserve">
<g>
	<g>
		<path fill="#999999" d="M52.246-0.019C40.35,9.949,32.827,25.458,32.827,40.486c0,10.202,4.915,17.056,12.231,17.056
			c6.146,0,9.818-4.992,9.818-9.818c0-5.578-3.612-9.474-8.785-9.474c-0.482,0-1.167,0.087-1.564,0.167
			c-1.319,0.656-2.89,0.708-4.283,0.08c-1.895-0.855-3.063-2.794-2.934-4.869c0.67-10.727,7.527-23.06,17.286-31.765L52.246-0.019z
			 M22.488,0.021C12.377,8.8,3.02,23.921,3.02,40.486c0,10.042,5.171,17.056,12.576,17.056c5.224,0,9.474-4.404,9.474-9.818
			c0-5.578-3.613-9.474-8.785-9.474c-0.341,0.002-1.168,0.107-1.638,0.202c-1.303,0.621-2.842,0.662-4.209,0.044
			c-1.895-0.855-3.063-2.794-2.934-4.87c0.67-10.727,7.527-23.06,17.286-31.764L22.488,0.021z"/>
	</g>
</g>
</svg>
